# xmcd
#
# Track frame offsets:
#	150
#	18680
#	33995
#	49228
#	70218
#	87162
#	106831
#	120106
#	134565
#	153190
#	168538
#	183769
#	204744
#	221667
#	241473
#	254741
#	280587
#
# Disc length: 3753 seconds
#
# Revision: 1
# Processed by: cddbd v1.5.2PL0 Copyright (c) Steve Scherf et al.
# Submitted via: audiograbber 1.83.01
#
DISCID=f00ea711
DTITLE=Sound Choice - SC2006
DYEAR=1900
DGENRE=Karaoke
TTITLE0=John Micheal Montgomery - I Love The Way You Love Me
TTITLE1=John Micheal Montgomery - Life's A Dance
TTITLE2=John Micheal Montgomery - Kick It Up
TTITLE3=John Micheal Montgomery - I Swear
TTITLE4=John Micheal Montgomery - Beer and Bones
TTITLE5=John Micheal Montgomery - Rope The Moon
TTITLE6=John Micheal Montgomery - Be My Baby Tonight
TTITLE7=John Micheal Montgomery - Nickels and Dimes and Love
TTITLE8=John Micheal Montgomery - I Love The Way You Love Me (Vocal Version)
TTITLE9=John Micheal Montgomery - Life's A Dance (Vocal Version)
TTITLE10=John Micheal Montgomery - Kick It Up (Vocal Version)
TTITLE11=John Micheal Montgomery - I Swear (Vocal Version)
TTITLE12=John Micheal Montgomery - Beer and Bones (Vocal Version)
TTITLE13=John Micheal Montgomery - Rope The Moon (Vocal Version)
TTITLE14=John Micheal Montgomery - Be My Baby Tonight (Vocal Version)
TTITLE15=John Micheal Montgomery - Nickels and Dimes and Love (Vocal Version)
TTITLE16=Data Track - Data Track
EXTD=
EXTT0=
EXTT1=
EXTT2=
EXTT3=
EXTT4=
EXTT5=
EXTT6=
EXTT7=
EXTT8=
EXTT9=
EXTT10=
EXTT11=
EXTT12=
EXTT13=
EXTT14=
EXTT15=
EXTT16=
PLAYORDER=
